<svg xmlns="http://www.w3.org/2000/svg" fill="none" height="39" width="39"><g clip-path="url(#a)"><circle fill="#D5E5FA" r="19.5" cy="19.5" cx="19.5"/><path fill="#5094F0" d="M19.5 0A19.5 19.5 0 111.848 27.787l2.677-1.257A16.543 16.543 0 1019.5 2.957V0z"/><circle fill="#fff" r="17.5" cy="19.5" cx="19.5"/><path fill="#5094F0" d="M11 20.048a1 1 0 011-1h2.524a1 1 0 011 1V29H14a3 3 0 01-3-3v-5.952zM17.333 15.524a1 1 0 011-1h2.524a1 1 0 011 1V29h-4.524V15.524zM23.667 11a1 1 0 011-1h2.523a1 1 0 011 1v15a3 3 0 01-3 3h-1.523V11z"/></g><defs><clipPath id="a"><path fill="#fff" d="M0 0h39v39H0z"/></clipPath></defs><g fill="#000"><path d="M19.336 30.274v.743c-.326-.142-1.094-.426-1.735-.396-.645.03-1.14.197-1.482.592-.343.395-.515.965-.515 1.711 0 .744.172 1.313.515 1.708.343.394.837.592 1.482.592.328 0 1.12-.154 1.735-.517v.798c-.236.072-.912.336-1.78.346-.855.01-1.528-.261-2.02-.784-.491-.524-.737-1.238-.737-2.143 0-.907.246-1.623.737-2.146.492-.523 1.165-.763 2.02-.785.672-.016 1.289.164 1.78.28zm4.525.007v.745a4.714 4.714 0 00-.82-.31 2.908 2.908 0 00-.746-.102c-.416 0-.737.08-.962.242-.226.161-.339.39-.339.688 0 .25.075.438.225.565.15.128.434.23.853.308l.461.095c.57.108.99.3 1.262.573.27.274.406.64.406 1.099 0 .547-.183.961-.55 1.244-.367.282-.905.423-1.613.423a4.34 4.34 0 01-.853-.09 6.34 6.34 0 01-.936-.269v-.787c.31.174.614.306.912.394.297.088.59.132.877.132.436 0 .773-.086 1.01-.257s.355-.416.355-.734c0-.277-.085-.494-.255-.65-.17-.156-.45-.274-.838-.352l-.465-.09c-.57-.114-.982-.292-1.237-.534-.254-.242-.382-.578-.382-1.01 0-.499.176-.892.528-1.18.352-.287.836-.43 1.454-.43.265 0 .535.023.81.071.274.048.555.12.843.216z"/><path d="M16.964 32.2c0-.08.027-.148.083-.204a.277.277 0 01.204-.083.278.278 0 01.287.287.278.278 0 01-.287.287.277.277 0 01-.204-.083.277.277 0 01-.083-.204zm0 1.407a.28.28 0 01.083-.205.275.275 0 01.204-.084c.08 0 .148.028.204.084a.28.28 0 01.083.205.28.28 0 01-.082.204.276.276 0 01-.205.083.276.276 0 01-.205-.083.279.279 0 01-.082-.204zm1.484-1.407c0-.08.028-.148.083-.204a.277.277 0 01.204-.083.278.278 0 01.287.287.278.278 0 01-.287.287.277.277 0 01-.204-.083.277.277 0 01-.083-.204zm0 1.407a.28.28 0 01.083-.205.275.275 0 01.204-.084c.08 0 .149.028.204.084a.28.28 0 01.083.205.28.28 0 01-.082.204.276.276 0 01-.205.083.276.276 0 01-.205-.083.279.279 0 01-.082-.204z"/></g></svg>