<?xml version="1.0" encoding="UTF-8" standalone="no"?>
<svg
   xmlns:dc="http://purl.org/dc/elements/1.1/"
   xmlns:cc="http://creativecommons.org/ns#"
   xmlns:rdf="http://www.w3.org/1999/02/22-rdf-syntax-ns#"
   xmlns:svg="http://www.w3.org/2000/svg"
   xmlns="http://www.w3.org/2000/svg"
   xmlns:sodipodi="http://sodipodi.sourceforge.net/DTD/sodipodi-0.dtd"
   xmlns:inkscape="http://www.inkscape.org/namespaces/inkscape"
   inkscape:version="1.0 (4035a4fb49, 2020-05-01)"
   sodipodi:docname="68747470733a2f2f7265732e636c6f7564696e6172792e636f6d2f616e7572616768617a72612f696d6167652f75706c6f61642f76313539343930383234322f6c6f676f5f636373776d652e737667.svg"
   id="svg21"
   version="1.1"
   fill="none"
   viewBox="0 0 39 39"
   height="39"
   width="39">
  <metadata
     id="metadata25">
    <rdf:RDF>
      <cc:Work
         rdf:about="">
        <dc:format>image/svg+xml</dc:format>
        <dc:type
           rdf:resource="http://purl.org/dc/dcmitype/StillImage" />
      </cc:Work>
    </rdf:RDF>
  </metadata>
  <sodipodi:namedview
     inkscape:current-layer="svg21"
     inkscape:window-maximized="1"
     inkscape:window-y="0"
     inkscape:window-x="0"
     inkscape:cy="16.453588"
     inkscape:cx="9.4393523"
     inkscape:zoom="13.852041"
     showgrid="false"
     id="namedview23"
     inkscape:window-height="1048"
     inkscape:window-width="1920"
     inkscape:pageshadow="2"
     inkscape:pageopacity="0"
     guidetolerance="10"
     gridtolerance="10"
     objecttolerance="10"
     borderopacity="1"
     bordercolor="#666666"
     pagecolor="#ffffff" />
  <g
     id="g14"
     clip-path="url(#clip0)">
    <circle
       id="circle2"
       fill="#D5E5FA"
       r="19.5"
       cy="19.5"
       cx="19.5" />
    <path
       id="path4"
       fill="#5094F0"
       d="M19.5 3.05176e-05C22.993 3.05592e-05 26.4219 0.938272 29.4282 2.71669C32.4346 4.49511 34.9081 7.04841 36.5901 10.1097C38.2722 13.171 39.1011 16.628 38.9902 20.1192C38.8793 23.6104 37.8326 27.0078 35.9596 29.9561C34.0867 32.9045 31.4561 35.2957 28.3429 36.8797C25.2297 38.4637 21.7482 39.1824 18.2623 38.9607C14.7763 38.739 11.4139 37.585 8.52653 35.6194C5.63911 33.6537 3.33268 30.9486 1.84832 27.7867L4.5253 26.5299C5.78456 29.2123 7.7412 31.5072 10.1907 33.1748C12.6402 34.8423 15.4927 35.8213 18.45 36.0094C21.4073 36.1975 24.3608 35.5877 27.0018 34.244C29.6429 32.9002 31.8745 30.8717 33.4634 28.3704C35.0524 25.8692 35.9403 22.9871 36.0344 20.0253C36.1285 17.0635 35.4253 14.1309 33.9983 11.5338C32.5713 8.93678 30.473 6.7707 27.9225 5.26199C25.3721 3.75328 22.4633 2.95733 19.5 2.95732L19.5 3.05176e-05Z" />
    <circle
       id="circle6"
       fill="white"
       r="17.5"
       cy="19.5"
       cx="19.5" />
    <path
       id="path8"
       fill="#5094F0"
       d="M11 20.0477C11 19.4954 11.4477 19.0477 12 19.0477H14.5238C15.0761 19.0477 15.5238 19.4954 15.5238 20.0477V29.0001H14C12.3431 29.0001 11 27.6569 11 26.0001V20.0477Z" />
    <path
       id="path10"
       fill="#5094F0"
       d="M17.3334 15.5238C17.3334 14.9715 17.7811 14.5238 18.3334 14.5238H20.8572C21.4095 14.5238 21.8572 14.9715 21.8572 15.5238V29H17.3334V15.5238Z" />
    <path
       id="path12"
       fill="#5094F0"
       d="M23.6667 11C23.6667 10.4477 24.1144 10 24.6667 10H27.1905C27.7428 10 28.1905 10.4477 28.1905 11V26C28.1905 27.6569 26.8474 29 25.1905 29H23.6667V11Z" />
  </g>
  <defs
     id="defs19">
    <clipPath
       id="clip0">
      <rect
         id="rect16"
         fill="white"
         height="39"
         width="39" />
    </clipPath>
  </defs>
  <g
     style="fill:#000000"
     transform="matrix(0.02702317,0,0,0.02702317,14.63437,28.064701)"
     id="g131">
    <path
       style="fill:#000000"
       d="M 174,81.741 V 109.25 C 161.913,104 133.5,93.5 109.789,94.6 85.93,95.707 67.617,101.901 54.93,116.502 c -12.689,14.603 -19.033,35.71 -19.033,63.326 0,27.524 6.344,48.585 19.033,63.186 12.687,14.603 30.974,21.901 54.859,21.901 12.127,0 41.461,-5.665 64.211,-19.115 v 29.528 c -8.75,2.672 -33.75,12.422 -65.891,12.818 -31.625,0.39 -56.538,-9.678 -74.731,-29.039 -18.193,-19.358 -27.29,-45.784 -27.29,-79.28 0,-33.587 9.097,-60.059 27.29,-79.42 C 51.571,81.049 76.491,72.155 108.109,71.368 133,70.75 155.808,77.431 174,81.741 Z m 167.423,0.264 v 27.569 c -10.729,-5.13 -20.852,-8.957 -30.368,-11.476 -9.516,-2.519 -18.707,-3.778 -27.569,-3.778 -15.395,0 -27.268,2.987 -35.616,8.957 -8.352,5.972 -12.525,14.462 -12.525,25.47 0,9.236 2.774,16.212 8.327,20.922 5.55,4.712 16.069,8.515 31.558,11.406 l 17.073,3.499 c 21.084,4.013 36.643,11.08 46.673,21.202 10.027,10.124 15.044,23.675 15.044,40.654 0,20.247 -6.787,35.595 -20.362,46.043 -13.575,10.45 -33.472,15.674 -59.688,15.674 -9.89,0 -20.41,-1.119 -31.558,-3.358 -11.15,-2.239 -22.695,-5.55 -34.637,-9.937 v -29.109 c 11.476,6.438 22.717,11.29 33.727,14.555 11.008,3.267 21.832,4.898 32.468,4.898 16.14,0 28.596,-3.171 37.366,-9.517 8.769,-6.344 13.155,-15.395 13.155,-27.149 0,-10.262 -3.149,-18.285 -9.447,-24.071 -6.297,-5.783 -16.632,-10.122 -30.998,-13.015 l -17.213,-3.358 c -21.086,-4.199 -36.341,-10.776 -45.763,-19.733 -9.425,-8.957 -14.135,-21.412 -14.135,-37.366 0,-18.473 6.508,-33.027 19.522,-43.664 13.015,-10.636 30.95,-15.954 53.81,-15.954 9.796,0 19.778,0.888 29.948,2.659 10.168,1.773 20.572,4.432 31.208,7.977 z"
       id="path118" />
    <path
       style="fill:#000000"
       d="m 86.199,153.037 c 0,-2.98 1.024,-5.495 3.074,-7.544 2.048,-2.048 4.563,-3.073 7.544,-3.073 3.034,0 5.561,1.011 7.584,3.034 2.022,2.023 3.034,4.55 3.034,7.584 0,3.034 -1.012,5.563 -3.034,7.584 -2.023,2.023 -4.551,3.034 -7.584,3.034 -2.981,0 -5.496,-1.024 -7.544,-3.074 -2.05,-2.049 -3.074,-4.564 -3.074,-7.545 z m 0,52.052 c 0,-2.979 1.024,-5.509 3.074,-7.584 2.048,-2.076 4.563,-3.113 7.544,-3.113 2.98,0 5.495,1.037 7.544,3.113 2.048,2.075 3.074,4.604 3.074,7.584 0,2.981 -1.012,5.496 -3.034,7.545 -2.023,2.048 -4.551,3.073 -7.584,3.073 -3.033,0 -5.562,-1.025 -7.584,-3.073 -2.024,-2.049 -3.034,-4.564 -3.034,-7.545 z m 54.936,-52.052 c 0,-2.98 1.024,-5.495 3.074,-7.544 2.048,-2.048 4.563,-3.073 7.544,-3.073 3.034,0 5.561,1.011 7.584,3.034 2.022,2.023 3.034,4.55 3.034,7.584 0,3.034 -1.012,5.563 -3.034,7.584 -2.023,2.023 -4.551,3.034 -7.584,3.034 -2.981,0 -5.496,-1.024 -7.544,-3.074 -2.05,-2.049 -3.074,-4.564 -3.074,-7.545 z m 0,52.052 c 0,-2.979 1.024,-5.509 3.074,-7.584 2.048,-2.076 4.563,-3.113 7.544,-3.113 2.98,0 5.495,1.037 7.544,3.113 2.048,2.075 3.074,4.604 3.074,7.584 0,2.981 -1.012,5.496 -3.034,7.545 -2.023,2.048 -4.551,3.073 -7.584,3.073 -3.033,0 -5.563,-1.025 -7.584,-3.073 -2.023,-2.049 -3.034,-4.564 -3.034,-7.545 z"
       id="path120" />
  </g>
</svg>
